<?xml version="1.0" encoding="utf-8"?>
<!-- Generator: Adobe Illustrator 16.0.0, SVG Export Plug-In . SVG Version: 6.00 Build 0)  -->
<!DOCTYPE svg PUBLIC "-//W3C//DTD SVG 1.1//EN" "http://www.w3.org/Graphics/SVG/1.1/DTD/svg11.dtd">
<svg version="1.1" id="Layer_1" xmlns="http://www.w3.org/2000/svg" xmlns:xlink="http://www.w3.org/1999/xlink" x="0px" y="0px"
	 width="841.68px" height="595.441px" viewBox="0 0 841.68 595.441" style="enable-background:new 0 0 841.68 595.441;"
	 xml:space="preserve">
<style type="text/css">
<![CDATA[
	.st0{fill:#5590CC;}
	.st1{fill:#F3F3F5;}
	.st2{opacity:0.7;}
	.st3{fill:#06618C;}
]]>
	
	@-webkit-keyframes Layer_2 {
  0%   {-webkit-transform: translateX(0)}
  25%  {-webkit-transform: translateX(0px)}
  75%  {-webkit-transform: translateX(-25px)}
  100% {-webkit-transform: translateX(0)}
}

#Layer_2 {
  -webkit-animation: Layer_2 1s linear infinite;
}

</style>
<g id="Layer_1_1_" class="st2">
	<path class="st0" d="M559.969,299.378c0-160.961,125.947-291.44,281.32-291.44V590.82
		C685.916,590.82,559.969,460.341,559.969,299.378z"/>
</g>
<g id="Layer_2">
	<g>
		<path class="st1" d="M629.044,301.613c-5.028,7.373-6.281,17.211-2.908,25.398c3.585,8.703,11.696,13.898,21.706,13.898
			l38.594-0.031c-1.331,7.895-3.083,18.912-2.936,21.369h-0.002c1.099,16.299,11.147,35.436,11.59,36.271
			c3.002,5.604,12.012,9.828,20.957,9.828c1.984,0,3.949-0.207,5.831-0.611c14.522-3.111,18.086-13.162,17.905-18.664
			c-0.021-0.914-0.386-16.574-0.508-23.143c2.727-5.646,7.803-14.654,12.79-22.656c5.443-8.732,9.136-13.688,11.226-16.117
			c0.961,0.182,1.943,0.271,2.938,0.271h59.308c8.901,0,16.145-7.242,16.145-16.145V229.05l-0.021-0.271
			c-0.625-8.059-7.472-14.371-15.584-14.371h-53.276c-6.013,0-11.244,3.419-13.849,8.415c-3-1.387-6.586-2.497-10.746-2.497h-79.517
			c-18.009,0-25.976,8.408-29.487,15.463c-3.504,7.039-3.633,14.875-2.295,20.364c-4.156,6.352-6.295,14.949-3.967,22.832
			C629.357,284.422,626.35,292.717,629.044,301.613z"/>
		<path class="st3" d="M637.142,302.845c-10.312,10.234-7.142,31.018,10.693,31.018l46.976-0.039
			c-1.795,9.92-4.393,26.428-4.277,27.951c0.994,14.74,10.389,32.695,10.77,33.418c1.719,3.209,10.391,7.527,19.096,5.65
			c11.229-2.404,12.413-9.582,12.336-11.564c0,0-0.457-19.631-0.539-24.863c5.391-11.801,23.957-42.895,29.565-45.258
			c1.38,0.803,2.864,1.223,4.468,1.223h59.307c5.047,0,9.096-4.049,9.096-9.094v-81.959c-0.344-4.432-4.125-7.867-8.557-7.867
			h-53.275c-4.702,0-8.555,3.818-8.555,8.554v2.712c0,0-1.981,0.152-2.864-0.42c-3.438-2.177-7.673-4.927-13.177-4.927h-79.516
			c-29.712,0-26.542,26.391-23.83,29.98c-5.004,5.462-8.099,15.124-3.857,22.725C637.715,283.558,631.986,293.029,637.142,302.845
			L637.142,302.845z"/>
		<rect x="774.626" y="230.013" class="st3" width="51.487" height="81.807"/>
		<path class="st1" d="M651.005,303.531l0.458-2.023c-13.674-3.896-6.377-19.668,3.438-20.699l0.498-2.023
			c-13.14-3.322-6.875-19.593,3.398-20.7l0.496-2.024c-10.731-1.756-8.135-20.05,8.097-20.05l80.89-0.039
			c5.69,0,10.885,6.531,15.086,6.531h3.666v62.94c-4.545,2.863-10.158,6.529-13.285,9.166c-5.887,5.035-30.023,44.039-30.023,48.928
			s0.497,26.004,0.497,26.004s-4.697,6.109-15.276,1.643c0,0-8.898-16.689-9.815-29.984c0,0,4.01-27.336,6.149-35.93h-56.029
			C635.461,325.23,638.096,305.556,651.005,303.531L651.005,303.531z"/>
		<path d="M651.005,303.531"/>
		<circle class="st1" cx="800.369" cy="239.755" r="7.003"/>
	</g>
</g>
</svg>
