<?xml version="1.0" encoding="utf-8"?>
<!-- Generator: Adobe Illustrator 16.0.0, SVG Export Plug-In . SVG Version: 6.00 Build 0)  -->
<!DOCTYPE svg PUBLIC "-//W3C//DTD SVG 1.1//EN" "http://www.w3.org/Graphics/SVG/1.1/DTD/svg11.dtd">
<svg version="1.1" xmlns="http://www.w3.org/2000/svg" xmlns:xlink="http://www.w3.org/1999/xlink" x="0px" y="0px"
	 width="841.68px" height="595.44px" viewBox="0 0 841.68 595.44" style="enable-background:new 0 0 841.68 595.44;"
	 xml:space="preserve">
<style type="text/css">
<![CDATA[
	.st0{fill:#5590CC;}
	.st1{fill:#F3F3F5;}
	.st2{opacity:0.7;}
	.st3{fill:#06618C;}
]]>

@keyframes Layer_2 {
  0%   {transform: translateX(0)}
  25%  {transform: translateX(0px)}
  75%  {transform: translateX(25px)}
  100% {transform: translateX(0)}
}

#Layer_2 {
  animation: Layer_2 1s linear infinite;
}
</style>
<g id="Layer_1" class="st2">
	<path class="st0" d="M282.71,299.379c0,160.962-125.947,291.441-281.319,291.441V7.937
		C156.764,7.937,282.71,138.416,282.71,299.379z"/>
</g>
<g id="Layer_2">
	<g>
		<path class="st1" d="M213.636,297.146c5.028-7.373,6.281-17.212,2.908-25.4c-3.585-8.703-11.697-13.898-21.706-13.898
			l-38.594,0.031c1.331-7.894,3.083-18.912,2.936-21.368h0.001c-1.098-16.3-11.147-35.437-11.589-36.273
			c-3.002-5.604-12.012-9.829-20.957-9.829c-1.985,0-3.949,0.207-5.831,0.612c-14.523,3.112-18.086,13.163-17.906,18.666
			c0.021,0.913,0.386,16.574,0.509,23.141c-2.727,5.647-7.804,14.654-12.792,22.657c-5.443,8.733-9.135,13.687-11.225,16.116
			c-0.96-0.181-1.942-0.272-2.939-0.272H17.144C8.242,271.329,1,278.571,1,287.473v82.233l0.021,0.271
			c0.626,8.059,7.471,14.371,15.584,14.371h53.277c6.013,0,11.244-3.419,13.848-8.415c3,1.387,6.585,2.497,10.747,2.497h79.515
			c18.009,0,25.976-8.408,29.487-15.463c3.504-7.039,3.633-14.875,2.296-20.364c4.155-6.352,6.294-14.949,3.966-22.832
			C213.323,314.336,216.33,306.041,213.636,297.146z"/>
		<path class="st3" d="M205.538,295.913c10.311-10.235,7.142-31.017-10.693-31.017l-46.976,0.038
			c1.795-9.92,4.393-26.428,4.278-27.951c-0.994-14.742-10.388-32.697-10.77-33.418c-1.719-3.208-10.389-7.528-19.096-5.652
			c-11.229,2.406-12.413,9.582-12.336,11.567c0,0,0.458,19.63,0.539,24.862c-5.389,11.802-23.956,42.894-29.565,45.258
			c-1.379-0.803-2.864-1.223-4.468-1.223H17.144c-5.046,0-9.094,4.049-9.094,9.094v81.959c0.344,4.432,4.125,7.867,8.555,7.867
			h53.277c4.703,0,8.555-3.818,8.555-8.554v-2.712c0,0,1.981-0.152,2.864,0.42c3.438,2.177,7.672,4.927,13.176,4.927h79.515
			c29.712,0,26.542-26.391,23.831-29.98c5.003-5.462,8.098-15.124,3.857-22.725C204.965,315.2,210.694,305.729,205.538,295.913
			L205.538,295.913z"/>
		<rect x="16.567" y="286.938" class="st3" width="51.487" height="81.807"/>
		<path class="st1" d="M191.675,295.227l-0.458,2.023c13.673,3.896,6.377,19.669-3.437,20.7l-0.498,2.023
			c13.139,3.322,6.875,19.593-3.399,20.7l-0.496,2.024c10.731,1.756,8.135,20.05-8.097,20.05l-80.89,0.039
			c-5.69,0-10.884-6.531-15.085-6.531h-3.667v-62.939c4.545-2.865,10.159-6.531,13.286-9.167
			c5.886-5.036,30.023-44.04,30.023-48.927c0-4.889-0.497-26.004-0.497-26.004s4.697-6.11,15.276-1.643
			c0,0,8.899,16.689,9.815,29.985c0,0-4.01,27.335-6.149,35.929h56.028C207.219,273.528,204.583,293.202,191.675,295.227
			L191.675,295.227z"/>
		<path d="M191.675,295.227"/>
		<circle class="st1" cx="42.31" cy="359.003" r="7.003"/>
	</g>
</g>
</svg>
