<?xml version="1.0" encoding="utf-8"?>
<!-- Generator: Adobe Illustrator 16.0.0, SVG Export Plug-In . SVG Version: 6.00 Build 0)  -->
<!DOCTYPE svg PUBLIC "-//W3C//DTD SVG 1.1//EN" "http://www.w3.org/Graphics/SVG/1.1/DTD/svg11.dtd">
<svg version="1.1" id="Layer_1" xmlns="http://www.w3.org/2000/svg" xmlns:xlink="http://www.w3.org/1999/xlink" x="0px" y="0px"
	 width="300px" height="300px" viewBox="0 0 300 300" style="enable-background:new 0 0 300 300;" xml:space="preserve">
<style type="text/css">
<![CDATA[
	.st0{fill:#989898;}
	.st1{fill:#CDCCCC;}
]]>
	 .st1{
  -webkit-animation: xAxis 1.5s infinite;
  animation: xAxis 1.5s infinite;
}
@-webkit-keyframes xAxis {
  50% {
    -webkit-transform: translateX(-75%);
    transform: translateX(-75%);
  }
}

@keyframes xAxis {
  50% {
    -webkit-transform: translateX(-75%);
    transform: translateX(-75%);
  }
}
</style>
<path class="st0" d="M156.939,66.101c0,0-37.734-7.337-66.036-7.337s-53.458,6.289-53.458,6.289v18.867L-0.289,52.475l38.783-30.396
	v16.769C108.721,38.848,156.939,66.101,156.939,66.101z M41.457,52.996 M13.522,52.996"/>
<g>
	<path class="st1" d="M295.754,223.693c-1.05-3.146-3.146-26.204-5.24-36.686c-2.099-10.479-9.432-34.591-13.627-47.169
		c-4.191-12.578-12.578-22.014-15.725-24.107c-3.143-2.098-10.03-2.098-10.03-2.098l4.446,8.387h-4.896
		c0,0-3.146-10.48-6.289-14.676c-3.142-4.191-9.431-8.387-14.675-9.435c-5.241-1.049-5.252,0-5.252,0l5.925,16.769h-3.819
		c0,0-4.191-16.769-9.436-22.013c-5.24-5.24-14.676-10.48-20.966-10.48c-6.288,0-8.601,4.058-10.479,7.337
		c-1.229,2.149-1.064,3.174-1.229,3.628c0,0,2.962-2.963,4.446,0c1.291,2.583,4.104,15.446,4.265,21.066l0.904,1.51l-1.049,1.049
		c0,0-15.725-25.156-18.866-30.396c-3.146-5.24-6.29-9.436-8.388-11.529c-2.098-2.098-6.288-11.529-8.387-15.724
		c-2.098-4.192-6.289-11.529-9.436-11.529c-5.239,0-9.435,4.191-9.435,10.48c0,6.29,2.098,19.916,5.24,28.303
		s18.868,37.734,20.964,50.312c2.098,12.579,3.146,32.494,3.146,41.925c0,9.437,0,13.627-1.049,12.578
		c-1.048-1.05-8.386-11.529-8.386-12.578c0-1.048-2.098-18.867-9.436-24.106c-7.338-5.24-9.436-3.146-10.48-2.098
		c-1.049,1.049-1.049,12.578-2.097,15.725c-1.05,3.146-5.241,11.528-5.241,17.816c0,6.29,3.143,10.481,5.241,14.677
		c2.097,4.192,9.435,18.868,11.529,23.06c2.098,4.191,30.396,19.914,40.88,23.058c10.479,3.146,23.058,6.289,25.156,12.577
		c2.098,6.29,2.098,12.578,9.436,14.676c7.337,2.099,23.262,2.858,38.783-2.098c13.579-4.335,27.941-11.181,34.591-25.155
		C301.507,236.866,296.803,226.841,295.754,223.693z"/>
</g>
</svg>
